<svg width="22" height="22" viewBox="0 0 22 22" fill="none" xmlns="http://www.w3.org/2000/svg">
<g filter="url(#filter0_i_1_3719)">
<path fill-rule="evenodd" clip-rule="evenodd" d="M11.2373 21.9372C9.07526 21.9372 8.07335 21.6207 6.33317 20.3545C5.22579 21.7789 1.7349 22.8922 1.58725 20.9876C1.58725 19.5578 1.26558 18.3496 0.912272 17.0306C0.479866 15.4056 0 13.596 0 10.9739C0 4.71139 5.11505 0 11.1793 0C17.2435 0 22 4.9488 22 11.0372C22 17.1256 17.0959 21.9425 11.2373 21.9425M11.3269 5.41836C8.37392 5.26535 6.06951 7.31768 5.56328 10.536C5.14142 13.2003 5.89022 16.445 6.52828 16.6138C6.82886 16.6877 7.59875 16.0651 8.07335 15.585C8.85379 16.0968 9.75024 16.4872 10.7469 16.54C13.7737 16.6982 16.4578 14.3241 16.6213 11.2799C16.6792 9.80503 16.1574 8.36615 15.1678 7.27151C14.1782 6.17687 12.7995 5.51354 11.3269 5.42363" fill="#22BBFE"/>
<path fill-rule="evenodd" clip-rule="evenodd" d="M11.2373 21.9372C9.07526 21.9372 8.07335 21.6207 6.33317 20.3545C5.22579 21.7789 1.7349 22.8922 1.58725 20.9876C1.58725 19.5578 1.26558 18.3496 0.912272 17.0306C0.479866 15.4056 0 13.596 0 10.9739C0 4.71139 5.11505 0 11.1793 0C17.2435 0 22 4.9488 22 11.0372C22 17.1256 17.0959 21.9425 11.2373 21.9425M11.3269 5.41836C8.37392 5.26535 6.06951 7.31768 5.56328 10.536C5.14142 13.2003 5.89022 16.445 6.52828 16.6138C6.82886 16.6877 7.59875 16.0651 8.07335 15.585C8.85379 16.0968 9.75024 16.4872 10.7469 16.54C13.7737 16.6982 16.4578 14.3241 16.6213 11.2799C16.6792 9.80503 16.1574 8.36615 15.1678 7.27151C14.1782 6.17687 12.7995 5.51354 11.3269 5.42363" fill="url(#paint0_linear_1_3719)" fill-opacity="0.8"/>
<path fill-rule="evenodd" clip-rule="evenodd" d="M11.2373 21.9372C9.07526 21.9372 8.07335 21.6207 6.33317 20.3545C5.22579 21.7789 1.7349 22.8922 1.58725 20.9876C1.58725 19.5578 1.26558 18.3496 0.912272 17.0306C0.479866 15.4056 0 13.596 0 10.9739C0 4.71139 5.11505 0 11.1793 0C17.2435 0 22 4.9488 22 11.0372C22 17.1256 17.0959 21.9425 11.2373 21.9425M11.3269 5.41836C8.37392 5.26535 6.06951 7.31768 5.56328 10.536C5.14142 13.2003 5.89022 16.445 6.52828 16.6138C6.82886 16.6877 7.59875 16.0651 8.07335 15.585C8.85379 16.0968 9.75024 16.4872 10.7469 16.54C13.7737 16.6982 16.4578 14.3241 16.6213 11.2799C16.6792 9.80503 16.1574 8.36615 15.1678 7.27151C14.1782 6.17687 12.7995 5.51354 11.3269 5.42363" fill="url(#paint1_radial_1_3719)" fill-opacity="0.8"/>
<path fill-rule="evenodd" clip-rule="evenodd" d="M11.2373 21.9372C9.07526 21.9372 8.07335 21.6207 6.33317 20.3545C5.22579 21.7789 1.7349 22.8922 1.58725 20.9876C1.58725 19.5578 1.26558 18.3496 0.912272 17.0306C0.479866 15.4056 0 13.596 0 10.9739C0 4.71139 5.11505 0 11.1793 0C17.2435 0 22 4.9488 22 11.0372C22 17.1256 17.0959 21.9425 11.2373 21.9425M11.3269 5.41836C8.37392 5.26535 6.06951 7.31768 5.56328 10.536C5.14142 13.2003 5.89022 16.445 6.52828 16.6138C6.82886 16.6877 7.59875 16.0651 8.07335 15.585C8.85379 16.0968 9.75024 16.4872 10.7469 16.54C13.7737 16.6982 16.4578 14.3241 16.6213 11.2799C16.6792 9.80503 16.1574 8.36615 15.1678 7.27151C14.1782 6.17687 12.7995 5.51354 11.3269 5.42363" fill="url(#paint2_radial_1_3719)" fill-opacity="0.8"/>
</g>
<defs>
<filter id="filter0_i_1_3719" x="0" y="0" width="22" height="23.7" filterUnits="userSpaceOnUse" color-interpolation-filters="sRGB">
<feFlood flood-opacity="0" result="BackgroundImageFix"/>
<feBlend mode="normal" in="SourceGraphic" in2="BackgroundImageFix" result="shape"/>
<feColorMatrix in="SourceAlpha" type="matrix" values="0 0 0 0 0 0 0 0 0 0 0 0 0 0 0 0 0 0 127 0" result="hardAlpha"/>
<feOffset dy="2"/>
<feGaussianBlur stdDeviation="0.85"/>
<feComposite in2="hardAlpha" operator="arithmetic" k2="-1" k3="1"/>
<feColorMatrix type="matrix" values="0 0 0 0 1 0 0 0 0 1 0 0 0 0 1 0 0 0 0.8 0"/>
<feBlend mode="overlay" in2="shape" result="effect1_innerShadow_1_3719"/>
</filter>
<linearGradient id="paint0_linear_1_3719" x1="20.5" y1="4.5" x2="2.5" y2="17.5" gradientUnits="userSpaceOnUse">
<stop stop-color="#682CCD"/>
<stop offset="1" stop-color="#682CCD" stop-opacity="0"/>
</linearGradient>
<radialGradient id="paint1_radial_1_3719" cx="0" cy="0" r="1" gradientUnits="userSpaceOnUse" gradientTransform="translate(19 20.5) rotate(-124.38) scale(23.0217 12.9395)">
<stop stop-color="#9B2EBB"/>
<stop offset="1" stop-color="#9B2EBB" stop-opacity="0"/>
</radialGradient>
<radialGradient id="paint2_radial_1_3719" cx="0" cy="0" r="1" gradientUnits="userSpaceOnUse" gradientTransform="translate(7.5 -2.5) rotate(84.9204) scale(22.5887 14.7201)">
<stop stop-color="#282BEB"/>
<stop offset="1" stop-color="#282BEB" stop-opacity="0"/>
</radialGradient>
</defs>
</svg>
